<svg width="269" height="359" viewBox="0 0 269 359" fill="none" xmlns="http://www.w3.org/2000/svg">
<path d="M6.0471 467.715C-5.40768 686.596 191.762 690.563 291.779 665.186C477.722 612.73 373.801 534.19 507.087 424.405C640.372 314.619 478.727 329.539 424.76 243.373C370.794 157.206 596.094 142.046 493.032 -13.9968C389.969 -170.04 57.8865 -82.2463 247.482 101.165C437.078 284.577 20.3656 194.115 6.0471 467.715Z" stroke="#F4F4F4" stroke-width="2"/>
<path d="M65.9132 427.703C57.1692 596.298 208.858 599.416 285.795 579.9C428.829 539.552 348.856 479.022 451.361 394.499C553.867 309.975 429.514 321.417 387.969 255.028C346.425 188.639 519.749 177.033 440.411 56.8041C361.074 -63.4246 105.622 4.09698 251.541 145.434C397.459 286.771 76.8432 216.96 65.9132 427.703Z" stroke="#F4F4F4" stroke-width="2"/>
<path d="M-49.3269 504.956C-63.1619 770.831 176.158 775.711 297.547 744.917C523.222 681.256 397.062 585.819 558.805 452.502C720.549 319.185 524.353 337.258 458.824 232.573C393.294 127.888 666.751 109.544 541.609 -80.0375C416.466 -269.619 13.4221 -163.078 243.605 59.7755C473.788 282.629 -32.0332 172.613 -49.3269 504.956Z" stroke="#F4F4F4" stroke-width="2"/>
<path d="M-95.912 536.002C-111.904 840.825 162.775 846.319 302.114 810.963C561.163 737.881 416.402 628.52 602.101 475.607C787.799 322.695 562.607 343.499 487.439 223.508C412.271 103.518 726.142 82.3703 582.589 -134.925C439.035 -352.221 -23.6078 -229.904 240.493 25.4922C504.593 280.889 -75.9219 154.973 -95.912 536.002Z" stroke="#F4F4F4" stroke-width="2"/>
<path d="M-162.321 580.823C-181.082 942.332 144.203 949.008 309.19 907.157C615.919 820.633 444.426 690.847 664.246 509.601C884.066 328.356 617.399 352.898 528.314 210.546C439.229 68.1937 810.91 43.2958 640.784 -214.5C470.658 -472.295 -77.1429 -327.497 235.759 -24.4441C548.662 278.609 -138.871 128.936 -162.321 580.823Z" stroke="#F4F4F4" stroke-width="2"/>
<path d="M-239.768 633.221C-261.686 1061.11 122.66 1069.23 317.573 1019.81C679.93 917.608 477.212 763.868 736.817 549.488C996.421 335.109 681.357 363.974 576 195.417C470.643 26.861 909.787 -2.35342 708.597 -307.61C507.406 -612.867 -139.75 -441.854 230.169 -82.9299C600.089 275.994 -212.371 98.3603 -239.768 633.221Z" stroke="#F4F4F4" stroke-width="2"/>
</svg>
